# xmcd
#
# Track frame offsets:
#	150
#	16815
#	31762
#	48347
#	67037
#	84527
#	104595
#	126040
#	145127
#	164440
#	180902
#	199360
#	212887
#	230392
#	247892
#	262230
#	272890
#	286375
#
# Disc length: 4421 seconds
#
# Revision: 1
# Processed by: cddbd v1.5.2PL0 Copyright (c) Steve Scherf et al.
# Submitted via: audiograbber 1.83.01
#
DISCID=08114312
DTITLE=SHANIA TWAIN - TOP HITS
DYEAR=1900
DGENRE=KARAOKE
TTITLE0=HONEY I'M HOME 
TTITLE1=YOU'RE STILL THE ONE
TTITLE2=DON'T BE STUPID 
TTITLE3=ANY MAN OF MINE 
TTITLE4=FROM THIS MOMENT ON 
TTITLE5=WHOSE BED HAVE YOUR BOOTS BEEN UNDER
TTITLE6=THE WOMAN IN ME
TTITLE7=HOME AIN'T WHERE HIS HEART IS
TTITLE8=UP 
TTITLE9=LOVE GETS ME EVERY TIME 
TTITLE10=MAN I FEEL LIKE A WOMAN 
TTITLE11=COME ON OVER
TTITLE12=IF YOU'RE NOT IN IT FOR LOVE
TTITLE13=GOD BLESS THE CHILD 
TTITLE14=NO ONE NEEDS TO KNOW 
TTITLE15=DANCE WITH THE ONE THAT BROUGHT YOU 
TTITLE16=WHAT MADE YOU SAY THAT 
TTITLE17=YOU LAY A WHOLE LOT OF LOVE ON ME
EXTD=
EXTT0=
EXTT1=
EXTT2=
EXTT3=
EXTT4=
EXTT5=
EXTT6=
EXTT7=
EXTT8=
EXTT9=
EXTT10=
EXTT11=
EXTT12=
EXTT13=
EXTT14=
EXTT15=
EXTT16=
EXTT17=
PLAYORDER=
